<svg width="21" height="21" viewBox="0 0 21 21" fill="none" xmlns="http://www.w3.org/2000/svg">
<path d="M10.5597 0C4.81672 0 0.11792 4.68836 0.11792 10.4627C0.11792 15.6836 3.93961 20.0169 8.93078 20.8V13.4908H6.27857V10.4627H8.93078V8.15503C8.93078 5.53414 10.4866 4.09318 12.8778 4.09318C14.0159 4.09318 15.2063 4.29157 15.2063 4.29157V6.87069H13.8906C12.5958 6.87069 12.1886 7.67471 12.1886 8.49963V10.4627H15.0914L14.6216 13.4908H12.1886V20.8C14.6491 20.4114 16.8897 19.156 18.5058 17.2603C20.1219 15.3647 21.0071 12.9537 21.0015 10.4627C21.0015 4.68836 16.3027 0 10.5597 0Z" fill="#414141"/>
</svg>
