<svg width="40" height="40" viewBox="0 0 40 40" fill="none" xmlns="http://www.w3.org/2000/svg">
<circle cx="20" cy="20" r="20" fill="#303030" fill-opacity="0.7"/>
<path fill-rule="evenodd" clip-rule="evenodd" d="M20.5 26.2273C23.6631 26.2273 26.2273 23.6631 26.2273 20.5C26.2273 17.3369 23.6631 14.7727 20.5 14.7727C17.3369 14.7727 14.7727 17.3369 14.7727 20.5C14.7727 23.6631 17.3369 26.2273 20.5 26.2273ZM20.5 24.3182C22.6087 24.3182 24.3182 22.6087 24.3182 20.5C24.3182 18.3913 22.6087 16.6818 20.5 16.6818C18.3913 16.6818 16.6818 18.3913 16.6818 20.5C16.6818 22.6087 18.3913 24.3182 20.5 24.3182Z" fill="#9E9EA7"/>
<path d="M26.2273 13.8182C25.7001 13.8182 25.2727 14.2456 25.2727 14.7727C25.2727 15.2999 25.7001 15.7273 26.2273 15.7273C26.7545 15.7273 27.1818 15.2999 27.1818 14.7727C27.1818 14.2456 26.7545 13.8182 26.2273 13.8182Z" fill="#9E9EA7"/>
<path fill-rule="evenodd" clip-rule="evenodd" d="M10.6242 13.1271C10 14.3523 10 15.9561 10 19.1636V21.8364C10 25.0439 10 26.6477 10.6242 27.8728C11.1733 28.9505 12.0495 29.8267 13.1271 30.3757C14.3523 31 15.9561 31 19.1636 31H21.8364C25.0439 31 26.6477 31 27.8728 30.3757C28.9505 29.8267 29.8267 28.9505 30.3757 27.8728C31 26.6477 31 25.0439 31 21.8364V19.1636C31 15.9561 31 14.3523 30.3757 13.1271C29.8267 12.0495 28.9505 11.1733 27.8728 10.6242C26.6477 10 25.0439 10 21.8364 10H19.1636C15.9561 10 14.3523 10 13.1271 10.6242C12.0495 11.1733 11.1733 12.0495 10.6242 13.1271ZM21.8364 11.9091H19.1636C17.5283 11.9091 16.4167 11.9106 15.5574 11.9808C14.7205 12.0492 14.2924 12.1731 13.9939 12.3252C13.2754 12.6913 12.6913 13.2754 12.3252 13.9939C12.1731 14.2924 12.0492 14.7205 11.9808 15.5574C11.9106 16.4167 11.9091 17.5283 11.9091 19.1636V21.8364C11.9091 23.4717 11.9106 24.5833 11.9808 25.4425C12.0492 26.2796 12.1731 26.7076 12.3252 27.0062C12.6913 27.7246 13.2754 28.3087 13.9939 28.6747C14.2924 28.8269 14.7205 28.9509 15.5574 29.0192C16.4167 29.0894 17.5283 29.0909 19.1636 29.0909H21.8364C23.4717 29.0909 24.5833 29.0894 25.4425 29.0192C26.2796 28.9509 26.7076 28.8269 27.0062 28.6747C27.7246 28.3087 28.3087 27.7246 28.6747 27.0062C28.8269 26.7076 28.9509 26.2796 29.0192 25.4425C29.0894 24.5833 29.0909 23.4717 29.0909 21.8364V19.1636C29.0909 17.5283 29.0894 16.4167 29.0192 15.5574C28.9509 14.7205 28.8269 14.2924 28.6747 13.9939C28.3087 13.2754 27.7246 12.6913 27.0062 12.3252C26.7076 12.1731 26.2796 12.0492 25.4425 11.9808C24.5833 11.9106 23.4717 11.9091 21.8364 11.9091Z" fill="#9E9EA7"/>
</svg>
