<svg width="21" height="21" viewBox="0 0 21 21" fill="none" xmlns="http://www.w3.org/2000/svg">
<path fill-rule="evenodd" clip-rule="evenodd" d="M10.5015 16.2273C13.6645 16.2273 16.2287 13.6631 16.2287 10.5C16.2287 7.33691 13.6645 4.77273 10.5015 4.77273C7.33838 4.77273 4.77419 7.33691 4.77419 10.5C4.77419 13.6631 7.33838 16.2273 10.5015 16.2273ZM10.5015 14.3182C12.6102 14.3182 14.3196 12.6087 14.3196 10.5C14.3196 8.39128 12.6102 6.68182 10.5015 6.68182C8.39274 6.68182 6.68328 8.39128 6.68328 10.5C6.68328 12.6087 8.39274 14.3182 10.5015 14.3182Z" fill="#414141"/>
<path d="M16.2287 3.81818C15.7015 3.81818 15.2742 4.24555 15.2742 4.77273C15.2742 5.2999 15.7015 5.72727 16.2287 5.72727C16.7559 5.72727 17.1833 5.2999 17.1833 4.77273C17.1833 4.24555 16.7559 3.81818 16.2287 3.81818Z" fill="#414141"/>
<path fill-rule="evenodd" clip-rule="evenodd" d="M0.625699 3.12715C0.00146484 4.35228 0.00146484 5.95607 0.00146484 9.16364V11.8364C0.00146484 15.0439 0.00146484 16.6477 0.625699 17.8728C1.17479 18.9505 2.05095 19.8267 3.12861 20.3757C4.35374 21 5.95753 21 9.1651 21H11.8378C15.0454 21 16.6492 21 17.8743 20.3757C18.952 19.8267 19.8281 18.9505 20.3772 17.8728C21.0015 16.6477 21.0015 15.0439 21.0015 11.8364V9.16364C21.0015 5.95607 21.0015 4.35228 20.3772 3.12715C19.8281 2.04949 18.952 1.17333 17.8743 0.624234C16.6492 0 15.0454 0 11.8378 0H9.1651C5.95753 0 4.35374 0 3.12861 0.624234C2.05095 1.17333 1.17479 2.04949 0.625699 3.12715ZM11.8378 1.90909H9.1651C7.52981 1.90909 6.41816 1.91058 5.55891 1.98078C4.72192 2.04916 4.2939 2.17311 3.99532 2.32524C3.27688 2.69131 2.69278 3.27542 2.32671 3.99386C2.17457 4.29244 2.05063 4.72046 1.98224 5.55744C1.91204 6.41669 1.91056 7.52835 1.91056 9.16364V11.8364C1.91056 13.4717 1.91204 14.5833 1.98224 15.4425C2.05063 16.2796 2.17457 16.7076 2.32671 17.0062C2.69278 17.7246 3.27688 18.3087 3.99532 18.6747C4.2939 18.8269 4.72192 18.9509 5.55891 19.0192C6.41816 19.0894 7.52981 19.0909 9.1651 19.0909H11.8378C13.4732 19.0909 14.5847 19.0894 15.444 19.0192C16.281 18.9509 16.7091 18.8269 17.0076 18.6747C17.726 18.3087 18.3101 17.7246 18.6762 17.0062C18.8283 16.7076 18.9523 16.2796 19.0207 15.4425C19.0908 14.5833 19.0924 13.4717 19.0924 11.8364V9.16364C19.0924 7.52835 19.0908 6.41669 19.0207 5.55744C18.9523 4.72046 18.8283 4.29244 18.6762 3.99386C18.3101 3.27542 17.726 2.69131 17.0076 2.32524C16.7091 2.17311 16.281 2.04916 15.444 1.98078C14.5847 1.91058 13.4732 1.90909 11.8378 1.90909Z" fill="#414141"/>
</svg>
