<svg width="21" height="21" viewBox="0 0 21 21" fill="none" xmlns="http://www.w3.org/2000/svg">
<path d="M19.3197 0.00188332H1.79943C1.5736 -0.00869446 1.3479 0.0253621 1.13526 0.102123C0.922612 0.178884 0.727198 0.296827 0.560185 0.449195C0.393184 0.601575 0.257865 0.7854 0.161995 0.990131C0.066126 1.19488 0.0115702 1.41651 0.00146484 1.64236V19.202C0.0146936 19.6746 0.208374 20.1244 0.542729 20.4586C0.877085 20.793 1.32676 20.9867 1.79943 21H19.3197C19.7792 20.9795 20.2124 20.7798 20.5264 20.4437C20.8405 20.1076 21.0103 19.6619 20.9995 19.202V1.64236C21.0034 1.42253 20.9621 1.20427 20.8785 1.00093C20.7949 0.797606 20.6707 0.613492 20.5133 0.459878C20.3561 0.306277 20.1691 0.186431 19.9638 0.107675C19.7586 0.0289187 19.5394 -0.00708023 19.3197 0.00188332ZM6.56336 17.5091H3.50552V8.1518H6.56336V17.5091ZM5.10662 6.73439C4.89324 6.74183 4.68062 6.70506 4.48214 6.6264C4.28364 6.54773 4.10356 6.42887 3.95321 6.27728C3.80285 6.12568 3.68546 5.94464 3.60842 5.74551C3.53137 5.54639 3.49635 5.33348 3.50552 5.12016C3.49608 4.90454 3.53182 4.68934 3.61044 4.48835C3.68907 4.28734 3.80884 4.105 3.96206 3.95301C4.11529 3.80101 4.29859 3.68273 4.50021 3.60574C4.70185 3.52875 4.91734 3.49476 5.13287 3.50594C5.34625 3.49851 5.55887 3.53527 5.75735 3.61393C5.95585 3.6926 6.13594 3.81146 6.28628 3.96305C6.43664 4.11465 6.55403 4.29569 6.63107 4.49482C6.70812 4.69394 6.74315 4.90685 6.73397 5.12016C6.74341 5.33579 6.70767 5.55099 6.62905 5.75198C6.55042 5.95299 6.43066 6.13533 6.27744 6.28732C6.1242 6.43932 5.9409 6.5576 5.73928 6.63459C5.53765 6.71158 5.32215 6.74557 5.10662 6.73439ZM17.5086 17.5091H14.4376V12.3908C14.4376 11.1703 14.0046 10.3304 12.9153 10.3304C12.577 10.3332 12.2477 10.4407 11.9729 10.6381C11.6979 10.8355 11.4908 11.1131 11.3798 11.4328C11.2945 11.6724 11.2588 11.9269 11.2748 12.1808V17.5091H8.25634V8.1518H11.2748V9.46418C11.5432 8.97112 11.9425 8.56192 12.4289 8.2816C12.9153 8.0014 13.4696 7.86108 14.0308 7.87616C16.0125 7.87616 17.5086 9.18858 17.5086 11.984V17.5091Z" fill="#414141"/>
</svg>
