<svg width="40" height="40" viewBox="0 0 40 40" fill="none" xmlns="http://www.w3.org/2000/svg">
<circle cx="20" cy="20" r="20" fill="#303030" fill-opacity="0.7"/>
<path fill-rule="evenodd" clip-rule="evenodd" d="M30.8 29.8H26.64V22.521C26.64 20.5242 25.7591 19.4102 24.1794 19.4102C22.4602 19.4102 21.44 20.571 21.44 22.521V29.8H17.28V16.28H21.44V17.8004C21.44 17.8004 22.7452 15.5102 25.6863 15.5102C28.6285 15.5102 30.8 17.3055 30.8 21.0204V29.8ZM12.5397 14.1177C11.1367 14.1177 10 12.9717 10 11.5584C10 10.146 11.1367 9 12.5397 9C13.9416 9 15.0783 10.146 15.0783 11.5584C15.0794 12.9717 13.9416 14.1177 12.5397 14.1177ZM10 29.8H15.2V16.28H10V29.8Z" fill="#9E9EA7"/>
</svg>
