<svg width="40" height="40" viewBox="0 0 40 40" fill="none" xmlns="http://www.w3.org/2000/svg">
<circle cx="20" cy="20" r="20" fill="#303030" fill-opacity="0.7"/>
<path fill-rule="evenodd" clip-rule="evenodd" d="M17.5861 23.6403V16.8259C19.9768 17.9642 21.8283 19.0639 24.0181 20.2494C22.212 21.263 19.9768 22.4002 17.5861 23.6403ZM30.9092 13.4368C30.4968 12.8871 29.794 12.4591 29.0457 12.3174C26.8463 11.8948 13.1252 11.8936 10.927 12.3174C10.3269 12.4313 9.7926 12.7064 9.3336 13.1339C7.39957 14.9503 8.0056 24.6913 8.47178 26.2693C8.66781 26.9522 8.92123 27.4448 9.24038 27.7681C9.65157 28.1956 10.2146 28.4899 10.8612 28.6219C12.6721 29.001 22.0016 29.2129 29.0074 28.6788C29.6529 28.565 30.2243 28.2612 30.6749 27.8156C32.4631 26.0064 32.3412 15.7183 30.9092 13.4368Z" fill="#9E9EA7"/>
</svg>
